<mxfile host="app.diagrams.net" modified="2023-09-02T18:09:07.036Z" agent="Mozilla/5.0 (Windows NT 10.0; Win64; x64) AppleWebKit/537.36 (KHTML, like Gecko) Chrome/116.0.0.0 Safari/537.36" version="21.6.9" etag="FbNVerzuUpT9CiA0v3oA" type="github">
  <diagram name="Page-1" id="p_jzT8SZUXaS3e4CsBXz">
    <mxGraphModel>
      <root>
        <mxCell id="0" />
        <mxCell id="1" parent="0" />
      </root>
    </mxGraphModel>
  </diagram>
</mxfile>
